<svg id="Layer_1" data-name="Layer 1" xmlns="http://www.w3.org/2000/svg" viewBox="0 0 248.67 49.67"><defs><style>.cls-1{fill:#00a77e;}.cls-2{fill:#fff;}</style></defs><title>stephen-green-logo</title><path class="cls-1" d="M566.3,336.41a5,5,0,0,0-3.75-1.47c-2.44,0-3.5,1-3.5,2.55s1.18,2.05,3.83,2.63c2.92,0.62,4.74,1.39,4.74,3.85s-2.07,3.71-4.93,3.71a8.15,8.15,0,0,1-5.51-2l0.66-1.1a6.88,6.88,0,0,0,4.87,1.9c2.19,0,3.5-.79,3.5-2.38s-1.41-2.22-4.16-2.84-4.37-1.35-4.37-3.58c0-2.55,2-3.95,4.89-3.95a6.37,6.37,0,0,1,4.37,1.59Z" transform="translate(-493.33 -324.38)"/><path class="cls-1" d="M582,335h-4.89v12.54h-1.35V335h-4.89v-1.2H582V335Z" transform="translate(-493.33 -324.38)"/><path class="cls-1" d="M595.67,346.37v1.2h-9.23V333.84h9.05V335h-7.72v5h6.73v1.14h-6.73v5.24h7.89Z" transform="translate(-493.33 -324.38)"/><path class="cls-1" d="M600.63,347.57V333.84h5.69a4.28,4.28,0,0,1,4.06,4.31,4.14,4.14,0,0,1-3.95,4.35H602v5.07h-1.33ZM602,341.3h4.39a2.89,2.89,0,0,0,2.67-3.15,3,3,0,0,0-2.79-3.11H602v6.27Z" transform="translate(-493.33 -324.38)"/><path class="cls-1" d="M625.8,333.84v13.73h-1.35v-6.42H616.3v6.42H615V333.84h1.33v6.11h8.14v-6.11h1.35Z" transform="translate(-493.33 -324.38)"/><path class="cls-1" d="M640.81,346.37v1.2h-9.23V333.84h9.05V335h-7.72v5h6.73v1.14h-6.73v5.24h7.89Z" transform="translate(-493.33 -324.38)"/><path class="cls-1" d="M647.11,336.35v11.22h-1.33V333.84h1l9.09,11.43V333.86h1.33v13.71h-1.16Z" transform="translate(-493.33 -324.38)"/><path class="cls-1" d="M680.27,345.58a5.82,5.82,0,0,1-4.39,2.09c-3.69,0-6.42-3.5-6.42-7,0-3.68,2.67-6.94,6.35-6.94a5.43,5.43,0,0,1,5.24,3l-1,.7a4.48,4.48,0,0,0-4.22-2.48c-3.06,0-5,2.82-5,5.74,0,3.1,2.24,5.75,5.16,5.75a5.5,5.5,0,0,0,4.29-2.28v-2.3h-3v-1h4.2v6.75h-1.16v-2Z" transform="translate(-493.33 -324.38)"/><path class="cls-1" d="M686.61,347.57V333.84h5.78a4.28,4.28,0,0,1,4.08,4.31,4.06,4.06,0,0,1-3.08,4.12l3.39,5.3h-1.53L692,342.5h-4.06v5.07h-1.33Zm1.33-6.27h4.51a2.91,2.91,0,0,0,2.67-3.15,3,3,0,0,0-2.79-3.11h-4.39v6.27Z" transform="translate(-493.33 -324.38)"/><path class="cls-1" d="M710.93,346.37v1.2h-9.23V333.84h9.05V335H703v5h6.73v1.14H703v5.24h7.89Z" transform="translate(-493.33 -324.38)"/><path class="cls-1" d="M725.12,346.37v1.2h-9.23V333.84h9.05V335h-7.72v5H724v1.14h-6.73v5.24h7.89Z" transform="translate(-493.33 -324.38)"/><path class="cls-1" d="M731.41,336.35v11.22h-1.33V333.84h1l9.09,11.43V333.86h1.33v13.71h-1.16Z" transform="translate(-493.33 -324.38)"/><path class="cls-2" d="M557.52,364.6v-7.7h2.56a3.85,3.85,0,0,1,0,7.7h-2.56Zm2.56-7.2h-2v6.7h2c2,0,3.1-1.45,3.1-3.36A3,3,0,0,0,560.07,357.4Z" transform="translate(-493.33 -324.38)"/><path class="cls-2" d="M578.84,364.1v0.5h-5.13v-7.7h5v0.5h-4.48v3h3.91v0.48h-3.91v3.2h4.57Z" transform="translate(-493.33 -324.38)"/><path class="cls-2" d="M589.35,357.94v6.66H588.8v-7.7h0.42l5.4,6.78v-6.77h0.55v7.69h-0.51Z" transform="translate(-493.33 -324.38)"/><path class="cls-2" d="M611,357.4H608.2v7.2h-0.55v-7.2h-2.82v-0.5H611v0.5Z" transform="translate(-493.33 -324.38)"/><path class="cls-2" d="M619.07,364.6l3.27-7.7h0.46l3.27,7.7h-0.6l-1.07-2.54h-3.68l-1.07,2.54h-0.59Zm3.5-7-1.71,4h3.39Z" transform="translate(-493.33 -324.38)"/><path class="cls-2" d="M635.69,364.6v-7.7h0.55v7.2h4.6v0.5h-5.15Z" transform="translate(-493.33 -324.38)"/><path class="cls-2" d="M666,358.18a2.69,2.69,0,0,0-2.11-.83c-1.51,0-2.16.62-2.16,1.58s0.68,1.25,2.26,1.57,2.71,0.76,2.71,2.12-1.12,2-2.75,2a4.31,4.31,0,0,1-3-1.15l0.29-.44a3.77,3.77,0,0,0,2.78,1.11c1.33,0,2.15-.5,2.15-1.49s-0.79-1.37-2.41-1.71-2.54-.72-2.54-2,1.11-2.16,2.72-2.16a3.3,3.3,0,0,1,2.4.9Z" transform="translate(-493.33 -324.38)"/><path class="cls-2" d="M681.81,357.4H679v7.2h-0.55v-7.2h-2.82v-0.5h6.19v0.5Z" transform="translate(-493.33 -324.38)"/><path class="cls-2" d="M697.22,360.77V356.9h0.55v3.87c0,2.06-.85,3.88-3.21,3.88s-3.21-1.93-3.21-3.88V356.9h0.55v3.87c0,1.7.6,3.37,2.65,3.37S697.22,362.43,697.22,360.77Z" transform="translate(-493.33 -324.38)"/><path class="cls-2" d="M708.09,364.6v-7.7h2.56a3.85,3.85,0,0,1,0,7.7h-2.56Zm2.56-7.2h-2v6.7h2c2,0,3.1-1.45,3.1-3.36A3,3,0,0,0,710.65,357.4Z" transform="translate(-493.33 -324.38)"/><path class="cls-2" d="M724.29,364.6v-7.69h0.55v7.69h-0.55Z" transform="translate(-493.33 -324.38)"/><path class="cls-2" d="M734.8,360.75a3.61,3.61,0,1,1,3.6,3.9A3.8,3.8,0,0,1,734.8,360.75Zm3.6,3.39a3.41,3.41,0,1,0-3-3.39A3.25,3.25,0,0,0,738.4,364.14Z" transform="translate(-493.33 -324.38)"/><path class="cls-1" d="M528.5,352.66h4a63.31,63.31,0,0,1-.07,7.56A4.33,4.33,0,0,1,528,363.7q-9.81,0-19.63,0a4.7,4.7,0,0,1-4.67-4.59c0-1.05,0-2.11,0-3.26h4.18c0,0.7,0,1.42,0,2.13a1.38,1.38,0,0,0,1.52,1.53q8.77,0,17.54,0a1.42,1.42,0,0,0,1.57-1.61C528.51,356.2,528.5,354.5,528.5,352.66Z" transform="translate(-493.33 -324.38)"/><path class="cls-1" d="M525.09,347.12c-5.11,0-10.29,0-15.4,0a1.53,1.53,0,0,1-1.77-1.72c0-1.64,0-3.27,0-4.91a1.42,1.42,0,0,1,1.59-1.59h17.42a1.58,1.58,0,0,1,1.61,1.86c0,0.73,0,1.42,0,2.41h4.18c0-2,0-2.38,0-3.44a4.8,4.8,0,0,0-4.9-4.94c-6.42,0-12.85-.06-19.27,0a4.7,4.7,0,0,0-4.83,4.78c0,2.21.1,4.41,0,6.62a5.07,5.07,0,0,0,5.26,5.17c3.86-.15,7.89-0.11,11.76-0.1s8.22,0,12.18.08v-4.16h-7.75Z" transform="translate(-493.33 -324.38)"/><path class="cls-2" d="M543,347h-1.28c-3.07,0-5.72.12-8.72,0.12v4.16h0.69c1.78,0,3.43,0,5.29,0,0,3.89,0,7.56-.07,11.23,0,4.57-2.84,7.33-7.4,7.35q-13.25,0-26.52,0c-4.71,0-7.47-2.78-7.48-7.49q0-13.19,0-26.37c0-4.7,2.78-7.47,7.48-7.48q13.19,0,26.39,0c4.71,0,7.44,2.86,7.48,7.57,0,0.93,0,1.9,0,2.9H543c0-2,0-3,0-4.37a10.22,10.22,0,0,0-10.24-10.23q-14.54,0-29.09,0a10.17,10.17,0,0,0-10.36,10.3q0,14.54,0,29.07A10.17,10.17,0,0,0,503.6,374q14.6,0,29.21,0A10.18,10.18,0,0,0,543,363.83c0-4.58,0-9.16,0-13.74V347Z" transform="translate(-493.33 -324.38)"/></svg>